<svg version="1.1" xmlns="http://www.w3.org/2000/svg" viewBox="0 0 422.3333740234375 148.07692307692304" width="1267.0001220703125" height="444.2307692307691">
  <!-- svg-source:excalidraw -->
  
  <defs>
    <style>
      @font-face {
        font-family: "Virgil";
        src: url("https://excalidraw.com/Virgil.woff2");
      }
      @font-face {
        font-family: "Cascadia";
        src: url("https://excalidraw.com/Cascadia.woff2");
      }
    </style>
  </defs>
  <rect x="0" y="0" width="422.3333740234375" height="148.07692307692304" fill="#ffffff"></rect><g transform="translate(136.00003051757812 10) rotate(0 37 64.03846153846152)"><text x="36.99999999999998" y="90.07692307692304" font-family="Virgil, Segoe UI Emoji" font-size="102.46153846153842px" fill="#364fc7" text-anchor="middle" style="white-space: pre;" direction="ltr">O</text></g><g transform="translate(216.16668701171875 58.50001525878906) rotate(0 22 22.5)"><text x="22" y="32" font-family="Virgil, Segoe UI Emoji" font-size="36px" fill="#364fc7" text-anchor="middle" style="white-space: pre;" direction="ltr">(n)</text></g><g transform="translate(315.3333740234375 24.5) rotate(0 48.5 25.5)"><text x="48.5" y="18.5" font-family="Virgil, Segoe UI Emoji" font-size="20px" fill="#495057" text-anchor="middle" style="white-space: pre;" direction="ltr">número de</text><text x="48.5" y="44" font-family="Virgil, Segoe UI Emoji" font-size="20px" fill="#495057" text-anchor="middle" style="white-space: pre;" direction="ltr">operações</text></g><g stroke-linecap="round"><g transform="translate(311.05245551829125 55.69509561322627) rotate(0 -21.091181200504764 10.723625761366037)"><path d="M0.62 -0.14 C-6.56 3.27, -35.59 17.72, -42.81 21.44 M-0.51 -1.26 C-7.32 2.23, -33.23 18.56, -40.42 22.7" stroke="#495057" stroke-width="2" fill="none"></path></g><g transform="translate(311.05245551829125 55.69509561322627) rotate(0 -21.091181200504764 10.723625761366037)"><path d="M-25.73 3.15 C-31.07 9.47, -34.71 16.54, -42.14 22.73 M-24.92 4.49 C-31.25 11.78, -36.36 18.49, -40.78 23.52" stroke="#495057" stroke-width="2" fill="none"></path></g><g transform="translate(311.05245551829125 55.69509561322627) rotate(0 -21.091181200504764 10.723625761366037)"><path d="M-17.32 17.07 C-25.51 18.91, -31.88 21.46, -42.14 22.73 M-16.52 18.42 C-25.9 20.62, -34.09 22.22, -40.78 23.52" stroke="#495057" stroke-width="2" fill="none"></path></g></g><g transform="translate(10 71.49998474121094) rotate(0 33.5 12.5)"><text x="33.5" y="18" font-family="Virgil, Segoe UI Emoji" font-size="20px" fill="#495057" text-anchor="middle" style="white-space: pre;" direction="ltr">"Big O"</text></g><g stroke-linecap="round"><g transform="translate(80.83334350585938 74.9818351172942) rotate(0 22.494873104337586 -7.720084281446546)"><path d="M0.45 -0.35 C7.91 -2.69, 38.3 -11.12, 45.77 -13.57 M-0.78 -1.58 C6.47 -4.26, 37.42 -13.04, 44.94 -15.09" stroke="#495057" stroke-width="2" fill="none"></path></g><g transform="translate(80.83334350585938 74.9818351172942) rotate(0 22.494873104337586 -7.720084281446546)"><path d="M24.9 -0.77 C34.74 -7.05, 39.72 -12.74, 44.02 -13.65 M24.77 -1.56 C30.68 -4.69, 35.32 -8.77, 44.68 -15.96" stroke="#495057" stroke-width="2" fill="none"></path></g><g transform="translate(80.83334350585938 74.9818351172942) rotate(0 22.494873104337586 -7.720084281446546)"><path d="M20.48 -16.54 C32.06 -16.84, 38.72 -16.54, 44.02 -13.65 M20.36 -17.33 C27.29 -16.5, 33.04 -16.65, 44.68 -15.96" stroke="#495057" stroke-width="2" fill="none"></path></g></g></svg>