<svg version="1.1" xmlns="http://www.w3.org/2000/svg" viewBox="0 0 389.3605745791129 313.0920318310008" width="1168.0817237373387" height="939.2760954930023">
  <!-- svg-source:excalidraw -->
  
  <defs>
    <style>
      @font-face {
        font-family: "Virgil";
        src: url("https://excalidraw.com/Virgil.woff2");
      }
      @font-face {
        font-family: "Cascadia";
        src: url("https://excalidraw.com/Cascadia.woff2");
      }
    </style>
  </defs>
  <rect x="0" y="0" width="389.3605745791129" height="313.0920318310008" fill="#ffffff"></rect><g transform="translate(61.86054406153477 16.464962252601964) rotate(0 42.5 17.5)"><text x="0" y="25" font-family="Virgil, Segoe UI Emoji" font-size="28px" fill="#e67700" text-anchor="start" style="white-space: pre;" direction="ltr">caso 1</text></g><g transform="translate(171.1938265322379 13.131618746742589) rotate(0 48.5 17.5)"><text x="0" y="25" font-family="Virgil, Segoe UI Emoji" font-size="28px" fill="#e67700" text-anchor="start" style="white-space: pre;" direction="ltr">caso 2</text></g><g stroke-linecap="round"><g transform="translate(73.51259274776248 54.637976058446185) rotate(357.31906887803285 88.84934967660442 3.773281751672542)"><path d="M-1.1 0.03 C-1.2 0.19, -31.78 -1.08, 0.08 0.44 C31.93 1.96, 158.4 7.71, 190.02 9.15 M0.52 -0.65 C0.21 -0.81, -32.81 -2.39, -0.83 -1.1 C31.15 0.19, 160.68 5.17, 192.4 7.09" stroke="#000000" stroke-width="1" fill="none"></path></g></g><g stroke-linecap="round"><g transform="translate(163.19388756739414 10.798305758461339) rotate(0 0.9660684800520585 139.64166504131632)"><path d="M0.19 -0.8 C0.27 45.73, 0.57 232.11, 0.72 278.59 M-1.17 1.4 C-0.71 48.17, 2.88 233.8, 3.1 280.08" stroke="#000000" stroke-width="1" fill="none"></path></g></g><g transform="translate(47.86054406153477 67.79829049967228) rotate(0 55.5 12.5)"><text x="0" y="18" font-family="Virgil, Segoe UI Emoji" font-size="20px" fill="#000000" text-anchor="start" style="white-space: pre;" direction="ltr">50 números</text></g><g transform="translate(170.69388756739414 68.2983210172504) rotate(0 55.5 12.5)"><text x="0" y="18" font-family="Virgil, Segoe UI Emoji" font-size="20px" fill="#000000" text-anchor="start" style="white-space: pre;" direction="ltr">50 números</text></g><g stroke-linecap="round"><g transform="translate(102.52720055567539 100.13163400553165) rotate(0 0.26951592825352577 11.344892103634777)"><path d="M-0.7 -0.26 C-0.44 3.67, 1.01 18.83, 1.24 22.85 M1.13 -1.44 C1.25 2.71, 0.5 20.25, 0.24 24.13" stroke="#000000" stroke-width="1" fill="none"></path></g><g transform="translate(102.52720055567539 100.13163400553165) rotate(0 0.26951592825352577 11.344892103634777)"><path d="M-3.44 12.87 C-2.79 15.42, -0.85 20.14, 0.43 23.25 M-2.73 13.17 C-2.11 16.45, -0.14 21.19, 0.05 24.07" stroke="#000000" stroke-width="1" fill="none"></path></g><g transform="translate(102.52720055567539 100.13163400553165) rotate(0 0.26951592825352577 11.344892103634777)"><path d="M4.54 13.28 C3.01 15.67, 2.76 20.27, 0.43 23.25 M5.26 13.58 C2.97 16.77, 2.05 21.36, 0.05 24.07" stroke="#000000" stroke-width="1" fill="none"></path></g></g><g stroke-linecap="round"><g transform="translate(227.9812545763146 97.13161874674259) rotate(0 0.4402955869945231 13.548358115572498)"><path d="M-1.2 1.18 C-0.82 5.35, 1.71 20.68, 2.08 24.76 M0.37 0.76 C0.62 5.16, 0.66 22.5, 1.17 26.34" stroke="#000000" stroke-width="1" fill="none"></path></g><g transform="translate(227.9812545763146 97.13161874674259) rotate(0 0.4402955869945231 13.548358115572498)"><path d="M-2.47 15.04 C-2.26 17.22, 0.03 21.44, 0.55 26.93 M-3.72 15.02 C-1.55 19.1, 0.29 23.11, 1.64 26.39" stroke="#000000" stroke-width="1" fill="none"></path></g><g transform="translate(227.9812545763146 97.13161874674259) rotate(0 0.4402955869945231 13.548358115572498)"><path d="M5.98 14.58 C3.82 16.8, 3.73 21.16, 0.55 26.93 M4.73 14.55 C3.95 18.88, 2.84 23.05, 1.64 26.39" stroke="#000000" stroke-width="1" fill="none"></path></g></g><g transform="translate(47.19388756739414 131.13163400553165) rotate(0 56 12.5)"><text x="0" y="18" font-family="Virgil, Segoe UI Emoji" font-size="20px" fill="#000000" text-anchor="start" style="white-space: pre;" direction="ltr">50 palpites</text></g><g transform="translate(181.86051354395664 131.7983210172504) rotate(0 49.5 12.5)"><text x="0" y="18" font-family="Virgil, Segoe UI Emoji" font-size="20px" fill="#000000" text-anchor="start" style="white-space: pre;" direction="ltr">6 palpites</text></g><g stroke-linecap="round"><g transform="translate(65.19385704981602 181.46497751139103) rotate(0 40.070382230905835 -1.011517614303159)"><path d="M-0.76 0.94 C12.41 0.75, 65.13 -0.83, 78.58 -1.24 M1.04 0.39 C14.64 -0.13, 67.82 -2.3, 80.9 -2.97" stroke="#000000" stroke-width="1" fill="none"></path></g></g><g stroke-linecap="round"><g transform="translate(192.19384179102695 177.79829049967228) rotate(0 39.80765971932556 1.2824127902090652)"><path d="M-0.32 0.45 C12.99 0.56, 66.53 1.34, 79.94 1.8 M1.71 -0.37 C14.82 0.4, 65.87 2.68, 78.79 2.93" stroke="#000000" stroke-width="1" fill="none"></path></g></g><g transform="translate(89.86051354395664 196.46500802896915) rotate(0 19.5 12.5)"><text x="0" y="18" font-family="Virgil, Segoe UI Emoji" font-size="20px" fill="#364fc7" text-anchor="start" style="white-space: pre;" direction="ltr">O(n)</text></g><g transform="translate(193.3605745791129 192.9649469938129) rotate(0 37.5 12.5)"><text x="0" y="18" font-family="Virgil, Segoe UI Emoji" font-size="20px" fill="#364fc7" text-anchor="start" style="white-space: pre;" direction="ltr">O(log n)</text></g><g transform="translate(12.527170038097267 244.46500802896915) rotate(11.682261166518826 73.5 20)"><text x="73.5" y="14" font-family="Virgil, Segoe UI Emoji" font-size="15.643547817211061px" fill="#495057" text-anchor="middle" style="white-space: pre;" direction="ltr">tempo de execução</text><text x="73.5" y="34" font-family="Virgil, Segoe UI Emoji" font-size="15.643547817211061px" fill="#495057" text-anchor="middle" style="white-space: pre;" direction="ltr">linear</text></g><g stroke-linecap="round"><g transform="translate(83.86051354395664 242.79829049967228) rotate(0 5.232909225672472 -8.740843256767846)"><path d="M-0.28 -1.04 C1.35 -4.17, 9.1 -15.46, 10.74 -18.51 M1.78 1.03 C3.18 -1.94, 8.23 -13.8, 9.92 -17.06" stroke="#495057" stroke-width="1" fill="none"></path></g><g transform="translate(83.86051354395664 242.79829049967228) rotate(0 5.232909225672472 -8.740843256767846)"><path d="M8.07 -6.32 C9.17 -11.4, 8.79 -14.06, 9.88 -17.04 M8.59 -6.22 C9.33 -8.8, 9.7 -10.99, 10 -16.56" stroke="#495057" stroke-width="1" fill="none"></path></g><g transform="translate(83.86051354395664 242.79829049967228) rotate(0 5.232909225672472 -8.740843256767846)"><path d="M1.53 -9.39 C5.14 -13.27, 7.26 -14.76, 9.88 -17.04 M2.04 -9.29 C4.3 -11.11, 6.17 -12.6, 10 -16.56" stroke="#495057" stroke-width="1" fill="none"></path></g></g><g transform="translate(181.69388756739414 251.46497751139103) rotate(350.6900296227384 73.5 20)"><text x="73.5" y="14" font-family="Virgil, Segoe UI Emoji" font-size="15.643547817211061px" fill="#495057" text-anchor="middle" style="white-space: pre;" direction="ltr">tempo de execução</text><text x="73.5" y="34" font-family="Virgil, Segoe UI Emoji" font-size="15.643547817211061px" fill="#495057" text-anchor="middle" style="white-space: pre;" direction="ltr">logarítimo</text></g><g stroke-linecap="round"><g transform="translate(238.90921440186418 248.3854616362602) rotate(0 -5.203283734368142 -11.334488600492477)"><path d="M0.63 0.08 C-1.31 -3.53, -9.14 -19.26, -11.04 -22.75 M-0.5 -0.92 C-2.14 -4.34, -7.63 -18.18, -8.94 -21.83" stroke="#495057" stroke-width="1" fill="none"></path></g><g transform="translate(238.90921440186418 248.3854616362602) rotate(0 -5.203283734368142 -11.334488600492477)"><path d="M-1.09 -14 C-4.96 -16.83, -5.8 -18.68, -7.8 -22.78 M-1.63 -12.38 C-3.55 -15.55, -6.47 -18.51, -9.47 -21.81" stroke="#495057" stroke-width="1" fill="none"></path></g><g transform="translate(238.90921440186418 248.3854616362602) rotate(0 -5.203283734368142 -11.334488600492477)"><path d="M-8.68 -11.11 C-9.87 -14.99, -8.06 -17.85, -7.8 -22.78 M-9.21 -9.49 C-8.56 -13.7, -8.93 -17.63, -9.47 -21.81" stroke="#495057" stroke-width="1" fill="none"></path></g></g><g transform="translate(288.3605745791129 105.13163400553165) rotate(0 45.5 10)"><text x="45.5" y="14" font-family="Virgil, Segoe UI Emoji" font-size="16px" fill="#495057" text-anchor="middle" style="white-space: pre;" direction="ltr">ECONOMIA!</text></g></svg>